<svg width="129" height="19" viewBox="0 0 129 19" fill="none" xmlns="http://www.w3.org/2000/svg">
<path d="M10.344 10.536L10.536 5.856H10.32L7.2 14.472L4.08 5.856H3.864L4.056 10.536V18H0.936V1.248H5.184L7.248 6.888H7.44L9.504 1.248H13.464V18H10.344V10.536ZM19.7906 18V12.072L14.4866 1.248H18.4946L20.2706 5.136L21.5666 8.424H21.7586L23.0546 5.136L24.8306 1.248H28.6946L23.3906 12.072V18H19.7906ZM52.1719 4.2V18H48.5719V4.2H43.7479V1.248H56.9959V4.2H52.1719ZM68.0025 18L66.9465 13.968H62.3625L61.3305 18H57.6825L62.2185 1.248H67.3065L71.8425 18H68.0025ZM64.7625 4.728H64.5705L62.9385 11.064H66.3945L64.7625 4.728ZM78.8891 18.288C77.4811 18.288 76.2571 18.056 75.2171 17.592C74.1771 17.128 73.3371 16.496 72.6971 15.696L74.7851 13.392C75.3931 14.064 76.0571 14.56 76.7771 14.88C77.5131 15.2 78.2571 15.36 79.0091 15.36C79.8731 15.36 80.5291 15.168 80.9771 14.784C81.4251 14.4 81.6491 13.848 81.6491 13.128C81.6491 12.536 81.4731 12.088 81.1211 11.784C80.7851 11.48 80.2091 11.264 79.3931 11.136L77.6411 10.848C76.1371 10.592 75.0491 10.04 74.3771 9.192C73.7051 8.328 73.3691 7.28 73.3691 6.048C73.3691 4.432 73.8971 3.184 74.9531 2.304C76.0091 1.408 77.4891 0.959999 79.3931 0.959999C80.6891 0.959999 81.8171 1.16 82.7771 1.56C83.7371 1.96 84.5131 2.504 85.1051 3.192L83.0651 5.472C82.6171 4.976 82.0891 4.592 81.4811 4.32C80.8731 4.032 80.1851 3.888 79.4171 3.888C77.8011 3.888 76.9931 4.552 76.9931 5.88C76.9931 6.456 77.1691 6.888 77.5211 7.176C77.8891 7.464 78.4811 7.68 79.2971 7.824L81.0491 8.136C82.4091 8.376 83.4571 8.888 84.1931 9.672C84.9291 10.456 85.2971 11.512 85.2971 12.84C85.2971 13.624 85.1611 14.352 84.8891 15.024C84.6171 15.68 84.2091 16.256 83.6651 16.752C83.1211 17.232 82.4491 17.608 81.6491 17.88C80.8651 18.152 79.9451 18.288 78.8891 18.288ZM93.0638 11.016L91.5758 13.104V18H87.9758V1.248H91.5758V8.256H91.7678L93.5918 5.472L96.5438 1.248H100.576L95.5598 8.328L100.816 18H96.7598L93.0638 11.016ZM106.35 8.064V0.24H109.518V8.064H106.35ZM122.061 18.288C120.653 18.288 119.429 18.056 118.389 17.592C117.349 17.128 116.509 16.496 115.869 15.696L117.957 13.392C118.565 14.064 119.229 14.56 119.949 14.88C120.685 15.2 121.429 15.36 122.181 15.36C123.045 15.36 123.701 15.168 124.149 14.784C124.597 14.4 124.821 13.848 124.821 13.128C124.821 12.536 124.645 12.088 124.293 11.784C123.957 11.48 123.381 11.264 122.565 11.136L120.813 10.848C119.309 10.592 118.221 10.04 117.549 9.192C116.877 8.328 116.541 7.28 116.541 6.048C116.541 4.432 117.069 3.184 118.125 2.304C119.181 1.408 120.661 0.959999 122.565 0.959999C123.861 0.959999 124.989 1.16 125.949 1.56C126.909 1.96 127.685 2.504 128.277 3.192L126.237 5.472C125.789 4.976 125.261 4.592 124.653 4.32C124.045 4.032 123.357 3.888 122.589 3.888C120.973 3.888 120.165 4.552 120.165 5.88C120.165 6.456 120.341 6.888 120.693 7.176C121.061 7.464 121.653 7.68 122.469 7.824L124.221 8.136C125.581 8.376 126.629 8.888 127.365 9.672C128.101 10.456 128.469 11.512 128.469 12.84C128.469 13.624 128.333 14.352 128.061 15.024C127.789 15.68 127.381 16.256 126.837 16.752C126.293 17.232 125.621 17.608 124.821 17.88C124.037 18.152 123.117 18.288 122.061 18.288Z" fill="#3B5BDB"/>
</svg>
