<svg width="14" height="17" viewBox="0 0 14 17" fill="none" xmlns="http://www.w3.org/2000/svg">
<path d="M13.5 1.5H9.75L9.4375 0.9375C9.3125 0.6875 9.0625 0.5 8.78125 0.5H5.1875C4.90625 0.5 4.65625 0.6875 4.53125 0.9375L4.25 1.5H0.5C0.21875 1.5 0 1.75 0 2V3C0 3.28125 0.21875 3.5 0.5 3.5H13.5C13.75 3.5 14 3.28125 14 3V2C14 1.75 13.75 1.5 13.5 1.5ZM1.65625 15.0938C1.6875 15.9062 2.34375 16.5 3.15625 16.5H10.8125C11.625 16.5 12.2812 15.9062 12.3125 15.0938L13 4.5H1L1.65625 15.0938Z" fill="#ADB5BD"/>
</svg>
